<svg width="203" height="22" viewBox="0 0 203 22" fill="none" xmlns="http://www.w3.org/2000/svg">
<path d="M0.54 15.462L1.908 14.526C2.304 15.462 3.744 16.524 5.598 16.524C7.398 16.524 8.1 15.84 8.1 14.706C8.1 13.356 5.958 13.014 4.968 12.708C3.906 12.402 0.972 11.88 0.972 9.432C0.972 7.128 2.952 6.084 5.418 6.084C7.614 6.084 9.378 7.218 9.828 8.478L8.46 9.324C8.136 8.55 6.858 7.776 5.238 7.776C3.708 7.776 2.88 8.352 2.88 9.342C2.88 10.62 4.86 10.926 5.94 11.232C6.912 11.538 9.972 12.186 9.972 14.634C9.972 16.974 8.226 18.216 5.418 18.216C2.844 18.216 1.116 16.938 0.54 15.462ZM15.9393 9.594C17.5413 9.594 19.2153 10.512 19.2153 12.906V18H17.5953V13.14C17.5953 11.61 16.5153 10.98 15.4713 10.98C14.4453 10.98 13.3833 11.61 13.3833 13.14V18H11.7633V6.3H13.3833V10.728C14.0133 9.918 14.9853 9.594 15.9393 9.594ZM25.3565 18.162C22.8545 18.162 21.1085 16.326 21.1085 13.86C21.1085 11.358 22.8545 9.558 25.3565 9.558C27.8405 9.558 29.5685 11.358 29.5685 13.86C29.5685 16.326 27.8405 18.162 25.3565 18.162ZM25.3565 16.614C26.9225 16.614 27.9665 15.426 27.9665 13.86C27.9665 12.276 26.9225 11.124 25.3565 11.124C23.7725 11.124 22.7285 12.276 22.7285 13.86C22.7285 15.426 23.7725 16.614 25.3565 16.614ZM35.9148 9.594C38.2548 9.594 39.9288 11.412 39.9288 13.878C39.9288 16.362 38.2548 18.144 35.9148 18.144C34.6368 18.144 33.6828 17.604 33.0708 16.74V21.312H31.4508V9.72H33.0708V11.016C33.6828 10.134 34.6368 9.594 35.9148 9.594ZM35.6988 16.614C37.3008 16.614 38.3448 15.462 38.3448 13.878C38.3448 12.276 37.3008 11.124 35.6988 11.124C34.1148 11.124 33.0708 12.276 33.0708 13.878C33.0708 15.462 34.1148 16.614 35.6988 16.614Z" fill="#807D7E"/>
<path fill-rule="evenodd" clip-rule="evenodd" d="M56.1576 15.9359C55.9564 15.7467 55.9465 15.4303 56.1357 15.2291L59.9259 11.1964C60.0247 11.0913 60.0247 10.9089 59.9259 10.8038L56.1357 6.77111C55.9465 6.56989 55.9564 6.25346 56.1576 6.06434C56.3588 5.87522 56.6752 5.88503 56.8643 6.08624L60.6546 10.1189C61.1151 10.6089 61.1151 11.3913 60.6546 11.8813L56.8643 15.914C56.6752 16.1152 56.3588 16.125 56.1576 15.9359Z" fill="#807D7E"/>
<path d="M90.724 6.3H92.506L88.6 18H87.178L84.442 9.792L81.706 18H80.266L76.36 6.3H78.16L81.004 14.922L83.866 6.3H85.108L87.916 14.706L90.724 6.3ZM97.1202 18.162C94.6182 18.162 92.8722 16.326 92.8722 13.86C92.8722 11.358 94.6182 9.558 97.1202 9.558C99.6042 9.558 101.332 11.358 101.332 13.86C101.332 16.326 99.6042 18.162 97.1202 18.162ZM97.1202 16.614C98.6862 16.614 99.7302 15.426 99.7302 13.86C99.7302 12.276 98.6862 11.124 97.1202 11.124C95.5362 11.124 94.4922 12.276 94.4922 13.86C94.4922 15.426 95.5362 16.614 97.1202 16.614ZM112.682 9.594C114.194 9.594 115.76 10.422 115.76 12.906V18H114.14V13.122C114.14 11.538 113.096 11.016 112.214 11.016C111.314 11.016 110.306 11.538 110.306 13.122V18H108.686V13.122C108.686 11.538 107.642 11.016 106.742 11.016C105.86 11.016 104.834 11.538 104.834 13.122V18H103.214V9.72H104.834V10.71C105.428 9.936 106.328 9.594 107.21 9.594C108.254 9.594 109.334 9.99 109.892 11.052C110.522 9.972 111.656 9.594 112.682 9.594ZM121.761 9.576C124.173 9.576 125.739 11.394 125.739 13.86V14.328H119.223C119.385 15.804 120.429 16.758 121.869 16.758C123.057 16.758 123.813 16.218 124.209 15.642L125.343 16.452C124.623 17.496 123.381 18.162 121.869 18.162C119.349 18.162 117.657 16.326 117.657 13.86C117.657 11.394 119.277 9.576 121.761 9.576ZM121.761 10.872C120.339 10.872 119.421 11.826 119.223 13.266H124.227C124.029 11.88 123.147 10.872 121.761 10.872ZM131.806 9.594C133.408 9.594 135.082 10.512 135.082 12.906V18H133.462V13.14C133.462 11.61 132.382 10.98 131.338 10.98C130.312 10.98 129.25 11.61 129.25 13.14V18H127.63V9.72H129.25V10.728C129.88 9.918 130.852 9.594 131.806 9.594Z" fill="#807D7E"/>
<path fill-rule="evenodd" clip-rule="evenodd" d="M152.158 15.9359C151.956 15.7467 151.947 15.4303 152.136 15.2291L155.926 11.1964C156.025 11.0913 156.025 10.9089 155.926 10.8038L152.136 6.77111C151.947 6.56989 151.956 6.25346 152.158 6.06434C152.359 5.87522 152.675 5.88503 152.864 6.08624L156.655 10.1189C157.115 10.6089 157.115 11.3913 156.655 11.8813L152.864 15.914C152.675 16.1152 152.359 16.125 152.158 15.9359Z" fill="#807D7E"/>
<path d="M181.648 6.3V7.848H177.94V18H176.266V7.848H172.54V6.3H181.648ZM186.441 18.162C183.938 18.162 182.193 16.326 182.193 13.86C182.193 11.358 183.938 9.558 186.441 9.558C188.925 9.558 190.652 11.358 190.652 13.86C190.652 16.326 188.925 18.162 186.441 18.162ZM186.441 16.614C188.007 16.614 189.051 15.426 189.051 13.86C189.051 12.276 188.007 11.124 186.441 11.124C184.857 11.124 183.812 12.276 183.812 13.86C183.812 15.426 184.857 16.614 186.441 16.614ZM196.999 9.594C199.339 9.594 201.013 11.412 201.013 13.878C201.013 16.362 199.339 18.144 196.999 18.144C195.721 18.144 194.767 17.604 194.155 16.74V21.312H192.535V9.72H194.155V11.016C194.767 10.134 195.721 9.594 196.999 9.594ZM196.783 16.614C198.385 16.614 199.429 15.462 199.429 13.878C199.429 12.276 198.385 11.124 196.783 11.124C195.199 11.124 194.155 12.276 194.155 13.878C194.155 15.462 195.199 16.614 196.783 16.614Z" fill="#807D7E"/>
</svg>
