<svg width="188" height="22" viewBox="0 0 188 22" fill="none" xmlns="http://www.w3.org/2000/svg">
<path d="M11 0L13.4697 7.60081H21.4616L14.996 12.2984L17.4656 19.8992L11 15.2016L4.53436 19.8992L7.00402 12.2984L0.538379 7.60081H8.53035L11 0Z" fill="#EDD146"/>
<path d="M43 0L45.4697 7.60081H53.4616L46.996 12.2984L49.4656 19.8992L43 15.2016L36.5344 19.8992L39.004 12.2984L32.5384 7.60081H40.5303L43 0Z" fill="#EDD146"/>
<path d="M75 0L77.4697 7.60081H85.4616L78.996 12.2984L81.4656 19.8992L75 15.2016L68.5344 19.8992L71.004 12.2984L64.5384 7.60081H72.5303L75 0Z" fill="#EDD146"/>
<path d="M107 0L109.47 7.60081H117.462L110.996 12.2984L113.466 19.8992L107 15.2016L100.534 19.8992L103.004 12.2984L96.5384 7.60081H104.53L107 0Z" fill="#EDD146"/>
<path d="M139 0L141.47 7.60081H149.462L142.996 12.2984L145.466 19.8992L139 15.2016L132.534 19.8992L135.004 12.2984L128.538 7.60081H136.53L139 0Z" fill="#EDD146"/>
<path d="M170.346 10.53C172.092 10.746 173.892 11.79 173.892 14.184C173.892 16.866 171.75 18.144 169.5 18.144C167.844 18.144 166.26 17.424 165.54 16.38L166.638 15.282C167.16 15.948 168.24 16.506 169.5 16.506C171.03 16.506 172.2 15.624 172.2 14.184C172.2 12.69 171.03 11.826 169.5 11.826C168.834 11.826 168.15 11.934 167.43 12.186L167.448 10.926L171.228 7.848H166.368V6.3H173.622V7.74L170.346 10.53ZM176.337 18.072C175.815 18.072 175.419 17.676 175.419 17.154C175.419 16.614 175.815 16.236 176.337 16.236C176.877 16.236 177.255 16.614 177.255 17.154C177.255 17.676 176.877 18.072 176.337 18.072ZM182.171 10.476C185.195 10.476 186.617 12.186 186.617 14.274C186.617 16.704 184.817 18.144 182.297 18.144C180.533 18.144 179.129 17.406 178.337 16.452L179.471 15.282C180.209 16.164 181.253 16.524 182.189 16.506C183.773 16.506 184.943 15.642 184.943 14.184C184.943 12.744 183.701 11.88 182.135 11.88C181.307 11.88 180.425 12.042 179.849 12.366L179.309 11.16L180.137 6.3H186.131V7.848H181.469L181.019 10.584C181.415 10.512 181.829 10.476 182.171 10.476Z" fill="#807D7E"/>
</svg>
